<svg xmlns="http://www.w3.org/2000/svg" viewBox="0 0 31.41 31"><defs><style>.cls-1,.cls-2{fill:#c36;}.cls-1{fill-rule:evenodd;}</style></defs><title>IconoSivigila</title><g id="Capa_2" data-name="Capa 2"><g id="Capa_1-2" data-name="Capa 1"><path class="cls-1" d="M26,8.78a11.9,11.9,0,0,1-14.47,18.8A11.89,11.89,0,1,0,26,8.78Z"/><path class="cls-1" d="M10.39,29A13.78,13.78,0,0,1,27.15,7.22,13.78,13.78,0,1,0,10.39,29Z"/><path class="cls-1" d="M8.12,31A16.68,16.68,0,0,1,27.3,3.82,16.68,16.68,0,1,0,8.12,31Z"/><circle class="cls-2" cx="17.69" cy="17.84" r="9.38" transform="translate(-0.79 0.82) rotate(-2.58)"/><circle class="cls-2" cx="17.69" cy="17.84" r="8.2" transform="translate(-1.35 34.23) rotate(-85.99)"/><path class="cls-1" d="M23.88,17.84A6.2,6.2,0,1,0,17.69,24,6.19,6.19,0,0,0,23.88,17.84Z"/></g></g></svg>